<svg width="100" height="100" viewBox="0 0 100 100" fill="none" xmlns="http://www.w3.org/2000/svg">
<g clip-path="url(#clip0_239_14)">
<mask id="mask0_239_14" style="mask-type:luminance" maskUnits="userSpaceOnUse" x="0" y="0" width="100" height="100">
<path d="M0 0H100V100H0V0Z" fill="white"/>
</mask>
<g mask="url(#mask0_239_14)">
<path d="M0 0H100V100H0V0Z" fill="white"/>
</g>
<mask id="mask1_239_14" style="mask-type:luminance" maskUnits="userSpaceOnUse" x="0" y="0" width="100" height="100">
<path d="M0 0H100V100H0V0Z" fill="white"/>
</mask>
<g mask="url(#mask1_239_14)">
<path d="M0 0H100V100H0V0Z" fill="white"/>
</g>
<mask id="mask2_239_14" style="mask-type:luminance" maskUnits="userSpaceOnUse" x="0" y="0" width="100" height="100">
<path d="M0 0H100V100H0V0Z" fill="white"/>
</mask>
<g mask="url(#mask2_239_14)">
<path d="M0 0H100V100H0V0Z" fill="#DBD669"/>
</g>
<mask id="mask3_239_14" style="mask-type:luminance" maskUnits="userSpaceOnUse" x="0" y="0" width="100" height="102">
<path d="M0 0H100V102H0V0Z" fill="white"/>
</mask>
<g mask="url(#mask3_239_14)">
<mask id="mask4_239_14" style="mask-type:luminance" maskUnits="userSpaceOnUse" x="0" y="0" width="100" height="100">
<path d="M0 0H100V100H0V0Z" fill="white"/>
</mask>
<g mask="url(#mask4_239_14)">
<mask id="mask5_239_14" style="mask-type:luminance" maskUnits="userSpaceOnUse" x="0" y="0" width="100" height="100">
<path d="M0 0H100V100H0V0Z" fill="white"/>
</mask>
<g mask="url(#mask5_239_14)">
<mask id="mask6_239_14" style="mask-type:luminance" maskUnits="userSpaceOnUse" x="10" y="34" width="80" height="56">
<path d="M10.1828 34.1617H89.8172V90H10.1828V34.1617Z" fill="white"/>
</mask>
<g mask="url(#mask6_239_14)">
<mask id="mask7_239_14" style="mask-type:luminance" maskUnits="userSpaceOnUse" x="10" y="34" width="80" height="56">
<path d="M50 34.1617C28.0096 34.1617 10.1828 46.6616 10.1828 62.0809C10.1828 77.5002 28.0096 90 50 90C71.9904 90 89.8172 77.5002 89.8172 62.0809C89.8172 46.6616 71.9904 34.1617 50 34.1617Z" fill="white"/>
</mask>
<g mask="url(#mask7_239_14)">
<path d="M10.1828 34.1617H89.8172V90H10.1828V34.1617Z" fill="#73B090"/>
</g>
</g>
</g>
</g>
</g>
<mask id="mask8_239_14" style="mask-type:luminance" maskUnits="userSpaceOnUse" x="0" y="0" width="100" height="102">
<path d="M0 0H100V102H0V0Z" fill="white"/>
</mask>
<g mask="url(#mask8_239_14)">
<mask id="mask9_239_14" style="mask-type:luminance" maskUnits="userSpaceOnUse" x="0" y="0" width="100" height="100">
<path d="M0 0H100V100H0V0Z" fill="white"/>
</mask>
<g mask="url(#mask9_239_14)">
<mask id="mask10_239_14" style="mask-type:luminance" maskUnits="userSpaceOnUse" x="0" y="0" width="100" height="100">
<path d="M0 0H100V100H0V0Z" fill="white"/>
</mask>
<g mask="url(#mask10_239_14)">
<mask id="mask11_239_14" style="mask-type:luminance" maskUnits="userSpaceOnUse" x="7" y="20" width="37" height="62">
<path d="M7.95599 20.8162H43.0562V81.7248H7.95599V20.8162Z" fill="white"/>
</mask>
<g mask="url(#mask11_239_14)">
<mask id="mask12_239_14" style="mask-type:luminance" maskUnits="userSpaceOnUse" x="7" y="20" width="37" height="62">
<path d="M43.0562 51.2705C43.0562 34.4511 35.1988 20.8162 25.5061 20.8162C15.8134 20.8162 7.95599 34.4511 7.95599 51.2705C7.95599 68.09 15.8134 81.7248 25.5061 81.7248C35.1988 81.7248 43.0562 68.09 43.0562 51.2705Z" fill="white"/>
</mask>
<g mask="url(#mask12_239_14)">
<path d="M43.0562 20.8162V81.7248H7.956V20.8162H43.0562Z" fill="#73B090"/>
</g>
</g>
</g>
</g>
</g>
<mask id="mask13_239_14" style="mask-type:luminance" maskUnits="userSpaceOnUse" x="0" y="0" width="100" height="102">
<path d="M0 0H100V102H0V0Z" fill="white"/>
</mask>
<g mask="url(#mask13_239_14)">
<mask id="mask14_239_14" style="mask-type:luminance" maskUnits="userSpaceOnUse" x="0" y="0" width="100" height="100">
<path d="M0 0H100V100H0V0Z" fill="white"/>
</mask>
<g mask="url(#mask14_239_14)">
<mask id="mask15_239_14" style="mask-type:luminance" maskUnits="userSpaceOnUse" x="0" y="0" width="100" height="100">
<path d="M0 0H100V100H0V0Z" fill="white"/>
</mask>
<g mask="url(#mask15_239_14)">
<mask id="mask16_239_14" style="mask-type:luminance" maskUnits="userSpaceOnUse" x="56" y="20" width="37" height="62">
<path d="M56.941 20.8162H92.0412V81.7248H56.941V20.8162Z" fill="white"/>
</mask>
<g mask="url(#mask16_239_14)">
<mask id="mask17_239_14" style="mask-type:luminance" maskUnits="userSpaceOnUse" x="56" y="20" width="37" height="62">
<path d="M92.0412 51.2705C92.0412 34.4511 84.1837 20.8162 74.4911 20.8162C64.7984 20.8162 56.941 34.4511 56.941 51.2705C56.941 68.09 64.7984 81.7248 74.4911 81.7248C84.1837 81.7248 92.0412 68.09 92.0412 51.2705Z" fill="white"/>
</mask>
<g mask="url(#mask17_239_14)">
<path d="M92.0411 20.8162V81.7248H56.9409V20.8162H92.0411Z" fill="#73B090"/>
</g>
</g>
</g>
</g>
</g>
<mask id="mask18_239_14" style="mask-type:luminance" maskUnits="userSpaceOnUse" x="0" y="0" width="100" height="102">
<path d="M0 0H100V102H0V0Z" fill="white"/>
</mask>
<g mask="url(#mask18_239_14)">
<mask id="mask19_239_14" style="mask-type:luminance" maskUnits="userSpaceOnUse" x="0" y="0" width="100" height="100">
<path d="M0 0H100V100H0V0Z" fill="white"/>
</mask>
<g mask="url(#mask19_239_14)">
<mask id="mask20_239_14" style="mask-type:luminance" maskUnits="userSpaceOnUse" x="0" y="0" width="100" height="100">
<path d="M0 0H100V100H0V0Z" fill="white"/>
</mask>
<g mask="url(#mask20_239_14)">
<mask id="mask21_239_14" style="mask-type:luminance" maskUnits="userSpaceOnUse" x="45" y="59" width="10" height="17">
<path d="M45.8958 59.8047H54.1042V75.3059H45.8958V59.8047Z" fill="white"/>
</mask>
<g mask="url(#mask21_239_14)">
<mask id="mask22_239_14" style="mask-type:luminance" maskUnits="userSpaceOnUse" x="45" y="59" width="10" height="17">
<path d="M50 59.8047C47.7333 59.8047 45.8958 63.2748 45.8958 67.5553C45.8958 71.8358 47.7333 75.3059 50 75.3059C52.2667 75.3059 54.1042 71.8358 54.1042 67.5553C54.1042 63.2748 52.2667 59.8047 50 59.8047Z" fill="white"/>
</mask>
<g mask="url(#mask22_239_14)">
<path d="M45.8958 59.8047H54.1042V75.3059H45.8958V59.8047Z" fill="#263134"/>
</g>
</g>
</g>
</g>
</g>
<mask id="mask23_239_14" style="mask-type:luminance" maskUnits="userSpaceOnUse" x="0" y="0" width="100" height="100">
<path d="M0 0H100V100H0V0Z" fill="white"/>
</mask>
<g mask="url(#mask23_239_14)">
<g opacity="0.5">
<mask id="mask24_239_14" style="mask-type:luminance" maskUnits="userSpaceOnUse" x="44" y="52" width="4" height="5">
<path d="M44.096 52.416H47.744V56.768H44.096V52.416Z" fill="white"/>
</mask>
<g mask="url(#mask24_239_14)">
<mask id="mask25_239_14" style="mask-type:luminance" maskUnits="userSpaceOnUse" x="44" y="52" width="4" height="5">
<path d="M44.102 53.2532L45.2383 52.4511L47.6901 55.9248L46.5538 56.7268L44.102 53.2532Z" fill="white"/>
</mask>
<g mask="url(#mask25_239_14)">
<mask id="mask26_239_14" style="mask-type:luminance" maskUnits="userSpaceOnUse" x="44" y="52" width="4" height="5">
<path d="M44.6701 52.8522C44.3564 53.0736 44.6508 54.0308 45.3279 54.99C46.0049 55.9492 46.8081 56.5473 47.1219 56.3258C47.4357 56.1043 47.1412 55.1472 46.4642 54.188C45.7872 53.2287 44.9839 52.6307 44.6701 52.8522Z" fill="white"/>
</mask>
<g mask="url(#mask26_239_14)">
<path d="M44.102 53.2532L45.2383 52.4512L47.6901 55.9248L46.5538 56.7269L44.102 53.2532Z" fill="#263134"/>
</g>
</g>
</g>
</g>
<g opacity="0.5">
<mask id="mask27_239_14" style="mask-type:luminance" maskUnits="userSpaceOnUse" x="52" y="52" width="4" height="5">
<path d="M52.288 52.416H55.936V56.768H52.288V52.416Z" fill="white"/>
</mask>
<g mask="url(#mask27_239_14)">
<mask id="mask28_239_14" style="mask-type:luminance" maskUnits="userSpaceOnUse" x="52" y="52" width="4" height="5">
<path d="M54.7522 52.4511L55.8921 53.2481L53.4558 56.7327L52.3159 55.9357L54.7522 52.4511Z" fill="white"/>
</mask>
<g mask="url(#mask28_239_14)">
<mask id="mask29_239_14" style="mask-type:luminance" maskUnits="userSpaceOnUse" x="52" y="52" width="4" height="5">
<path d="M55.3221 52.8496C55.0074 52.6296 54.2068 53.2312 53.534 54.1934C52.8613 55.1556 52.5711 56.1141 52.8859 56.3342C53.2006 56.5542 54.0012 55.9526 54.6739 54.9904C55.3467 54.0282 55.6369 53.0697 55.3221 52.8496Z" fill="white"/>
</mask>
<g mask="url(#mask29_239_14)">
<path d="M54.7522 52.4511L55.8921 53.2481L53.4558 56.7327L52.3159 55.9357L54.7522 52.4511Z" fill="#263134"/>
</g>
</g>
</g>
</g>
</g>
<mask id="mask30_239_14" style="mask-type:luminance" maskUnits="userSpaceOnUse" x="0" y="0" width="100" height="102">
<path d="M0 0H100V102H0V0Z" fill="white"/>
</mask>
<g mask="url(#mask30_239_14)">
<mask id="mask31_239_14" style="mask-type:luminance" maskUnits="userSpaceOnUse" x="0" y="0" width="100" height="100">
<path d="M0 0H100V100H0V0Z" fill="white"/>
</mask>
<g mask="url(#mask31_239_14)">
<mask id="mask32_239_14" style="mask-type:luminance" maskUnits="userSpaceOnUse" x="0" y="0" width="100" height="100">
<path d="M0 0H100V100H0V0Z" fill="white"/>
</mask>
<g mask="url(#mask32_239_14)">
<mask id="mask33_239_14" style="mask-type:luminance" maskUnits="userSpaceOnUse" x="15" y="29" width="21" height="18">
<path d="M15.4407 29.0693H35.5743V46.1825H15.4407V29.0693Z" fill="white"/>
</mask>
<g mask="url(#mask33_239_14)">
<mask id="mask34_239_14" style="mask-type:luminance" maskUnits="userSpaceOnUse" x="15" y="29" width="21" height="18">
<path d="M22.1555 29.5703C23.1844 29.2678 24.3612 29.0693 25.5129 29.0693C26.6647 29.0693 27.773 29.2394 28.7943 29.5419C28.816 29.5514 28.8377 29.5514 28.8595 29.5608C32.695 30.7708 35.52 33.9659 35.5743 37.6057V46.1825H15.4407V37.612C15.495 33.947 18.2765 30.7519 22.1555 29.5703Z" fill="white"/>
</mask>
<g mask="url(#mask34_239_14)">
<path d="M15.4407 29.0693H35.5743V46.1825H15.4407V29.0693Z" fill="white"/>
</g>
</g>
</g>
</g>
</g>
<mask id="mask35_239_14" style="mask-type:luminance" maskUnits="userSpaceOnUse" x="0" y="0" width="100" height="102">
<path d="M0 0H100V102H0V0Z" fill="white"/>
</mask>
<g mask="url(#mask35_239_14)">
<mask id="mask36_239_14" style="mask-type:luminance" maskUnits="userSpaceOnUse" x="0" y="0" width="100" height="100">
<path d="M0 0H100V100H0V0Z" fill="white"/>
</mask>
<g mask="url(#mask36_239_14)">
<mask id="mask37_239_14" style="mask-type:luminance" maskUnits="userSpaceOnUse" x="0" y="0" width="100" height="100">
<path d="M0 0H100V100H0V0Z" fill="white"/>
</mask>
<g mask="url(#mask37_239_14)">
<mask id="mask38_239_14" style="mask-type:luminance" maskUnits="userSpaceOnUse" x="64" y="29" width="21" height="18">
<path d="M64.4257 29.0693H84.5593V46.1825H64.4257V29.0693Z" fill="white"/>
</mask>
<g mask="url(#mask38_239_14)">
<mask id="mask39_239_14" style="mask-type:luminance" maskUnits="userSpaceOnUse" x="64" y="29" width="21" height="18">
<path d="M71.1405 29.5703C72.1694 29.2678 73.3462 29.0693 74.4979 29.0693C75.6497 29.0693 76.7579 29.2394 77.7793 29.5419C77.801 29.5514 77.8227 29.5514 77.8445 29.5608C81.6799 30.7708 84.505 33.9659 84.5593 37.6057V46.1825H64.4257V37.612C64.48 33.947 67.2615 30.7519 71.1405 29.5703Z" fill="white"/>
</mask>
<g mask="url(#mask39_239_14)">
<path d="M64.4257 29.0693H84.5593V46.1825H64.4257V29.0693Z" fill="white"/>
</g>
</g>
</g>
</g>
</g>
<mask id="mask40_239_14" style="mask-type:luminance" maskUnits="userSpaceOnUse" x="0" y="0" width="100" height="102">
<path d="M0 0H100V102H0V0Z" fill="white"/>
</mask>
<g mask="url(#mask40_239_14)">
<mask id="mask41_239_14" style="mask-type:luminance" maskUnits="userSpaceOnUse" x="0" y="0" width="100" height="100">
<path d="M0 0H100V100H0V0Z" fill="white"/>
</mask>
<g mask="url(#mask41_239_14)">
<mask id="mask42_239_14" style="mask-type:luminance" maskUnits="userSpaceOnUse" x="0" y="0" width="100" height="100">
<path d="M0 0H100V100H0V0Z" fill="white"/>
</mask>
<g mask="url(#mask42_239_14)">
<mask id="mask43_239_14" style="mask-type:luminance" maskUnits="userSpaceOnUse" x="22" y="30" width="14" height="17">
<path d="M22.2131 30.085H35.8525V46.1825H22.2131V30.085Z" fill="white"/>
</mask>
<g mask="url(#mask43_239_14)">
<mask id="mask44_239_14" style="mask-type:luminance" maskUnits="userSpaceOnUse" x="22" y="30" width="14" height="17">
<path d="M26.762 30.586C27.459 30.2835 28.2562 30.085 29.0365 30.085C29.8167 30.085 30.5675 30.2551 31.2594 30.5576C31.2742 30.5671 31.2889 30.5671 31.3036 30.5765C33.9019 31.7865 35.8157 34.9816 35.8525 38.5988V46.1825H22.2131V38.6044C22.2499 34.9627 24.1342 31.7676 26.762 30.586Z" fill="white"/>
</mask>
<g mask="url(#mask44_239_14)">
<path d="M22.2131 30.085H35.8525V46.1825H22.2131V30.085Z" fill="#263134"/>
</g>
</g>
</g>
</g>
</g>
<mask id="mask45_239_14" style="mask-type:luminance" maskUnits="userSpaceOnUse" x="0" y="0" width="100" height="102">
<path d="M0 0H100V102H0V0Z" fill="white"/>
</mask>
<g mask="url(#mask45_239_14)">
<mask id="mask46_239_14" style="mask-type:luminance" maskUnits="userSpaceOnUse" x="0" y="0" width="100" height="100">
<path d="M0 0H100V100H0V0Z" fill="white"/>
</mask>
<g mask="url(#mask46_239_14)">
<mask id="mask47_239_14" style="mask-type:luminance" maskUnits="userSpaceOnUse" x="0" y="0" width="100" height="100">
<path d="M0 0H100V100H0V0Z" fill="white"/>
</mask>
<g mask="url(#mask47_239_14)">
<mask id="mask48_239_14" style="mask-type:luminance" maskUnits="userSpaceOnUse" x="71" y="30" width="14" height="17">
<path d="M71.198 30.085H84.8374V46.1825H71.198V30.085Z" fill="white"/>
</mask>
<g mask="url(#mask48_239_14)">
<mask id="mask49_239_14" style="mask-type:luminance" maskUnits="userSpaceOnUse" x="71" y="30" width="14" height="17">
<path d="M75.7469 30.586C76.4439 30.2835 77.2412 30.085 78.0214 30.085C78.8016 30.085 79.5524 30.2551 80.2443 30.5576C80.2591 30.5671 80.2738 30.5671 80.2885 30.5765C82.8868 31.7865 84.8007 34.9816 84.8374 38.5988V46.1825H71.198V38.6044C71.2348 34.9627 73.1192 31.7676 75.7469 30.586Z" fill="white"/>
</mask>
<g mask="url(#mask49_239_14)">
<path d="M71.198 30.085H84.8374V46.1825H71.198V30.085Z" fill="#263134"/>
</g>
</g>
</g>
</g>
</g>
<mask id="mask50_239_14" style="mask-type:luminance" maskUnits="userSpaceOnUse" x="0" y="0" width="100" height="102">
<path d="M0 0H100V102H0V0Z" fill="white"/>
</mask>
<g mask="url(#mask50_239_14)">
<mask id="mask51_239_14" style="mask-type:luminance" maskUnits="userSpaceOnUse" x="0" y="0" width="100" height="100">
<path d="M0 0H100V100H0V0Z" fill="white"/>
</mask>
<g mask="url(#mask51_239_14)">
<mask id="mask52_239_14" style="mask-type:luminance" maskUnits="userSpaceOnUse" x="0" y="0" width="100" height="100">
<path d="M0 0H100V100H0V0Z" fill="white"/>
</mask>
<g mask="url(#mask52_239_14)">
<mask id="mask53_239_14" style="mask-type:luminance" maskUnits="userSpaceOnUse" x="78" y="4" width="19" height="19">
<path d="M86.7993 22.0234L78.7982 13.4943L88.7979 4.11378L96.7989 12.643L86.7993 22.0234Z" fill="white"/>
</mask>
<g mask="url(#mask53_239_14)">
<mask id="mask54_239_14" style="mask-type:luminance" maskUnits="userSpaceOnUse" x="82" y="4" width="15" height="14">
<path d="M82.7987 17.7588L88.7978 4.11378L96.7989 12.643L82.7987 17.7588Z" fill="white"/>
</mask>
<g mask="url(#mask54_239_14)">
<path d="M86.7993 22.0234L78.7983 13.4943L88.7979 4.11379L96.7989 12.643L86.7993 22.0234Z" fill="white"/>
</g>
</g>
</g>
</g>
</g>
<mask id="mask55_239_14" style="mask-type:luminance" maskUnits="userSpaceOnUse" x="0" y="0" width="100" height="102">
<path d="M0 0H100V102H0V0Z" fill="white"/>
</mask>
<g mask="url(#mask55_239_14)">
<mask id="mask56_239_14" style="mask-type:luminance" maskUnits="userSpaceOnUse" x="0" y="0" width="100" height="100">
<path d="M0 0H100V100H0V0Z" fill="white"/>
</mask>
<g mask="url(#mask56_239_14)">
<mask id="mask57_239_14" style="mask-type:luminance" maskUnits="userSpaceOnUse" x="0" y="0" width="100" height="100">
<path d="M0 0H100V100H0V0Z" fill="white"/>
</mask>
<g mask="url(#mask57_239_14)">
<mask id="mask58_239_14" style="mask-type:luminance" maskUnits="userSpaceOnUse" x="85" y="18" width="11" height="11">
<path d="M85.5886 27.3768L86.5479 18.4966L95.0647 19.4166L94.1055 28.2968L85.5886 27.3768Z" fill="white"/>
</mask>
<g mask="url(#mask58_239_14)">
<mask id="mask59_239_14" style="mask-type:luminance" maskUnits="userSpaceOnUse" x="86" y="19" width="10" height="10">
<path d="M86.0682 22.9367L95.0647 19.4166L94.1054 28.2968L86.0682 22.9367Z" fill="white"/>
</mask>
<g mask="url(#mask59_239_14)">
<path d="M85.5886 27.3768L86.5479 18.4965L95.0647 19.4166L94.1055 28.2968L85.5886 27.3768Z" fill="white"/>
</g>
</g>
</g>
</g>
</g>
</g>
<defs>
<clipPath id="clip0_239_14">
<rect width="100" height="100" rx="20" fill="white"/>
</clipPath>
</defs>
</svg>
